<svg xmlns="http://www.w3.org/2000/svg" version="1.1" xmlns:xlink="http://www.w3.org/1999/xlink" xmlns:svgjs="http://svgjs.dev/svgjs" width="1500" height="1500" viewBox="0 0 1500 1500"><rect width="1500" height="1500" fill="#282634"></rect><g transform="matrix(0.6666666666666666,0,0,0.6666666666666666,249.78425655976667,249.78425655976673)"><svg viewBox="0 0 343 343" data-background-color="#282634" preserveAspectRatio="xMidYMid meet" height="1500" width="1500" xmlns="http://www.w3.org/2000/svg" xmlns:xlink="http://www.w3.org/1999/xlink"><g id="tight-bounds" transform="matrix(1,0,0,1,0.0740000000000407,0.07400000000001228)"><svg viewBox="0 0 342.85155851775386 342.85155851775386" height="342.85155851775386" width="342.85155851775386"><g><svg></svg></g><g><svg viewBox="0 0 342.85155851775386 342.85155851775386" height="342.85155851775386" width="342.85155851775386"><g><path d="M0 171.426c0-94.676 76.75-171.426 171.426-171.426 94.676 0 171.426 76.75 171.426 171.426 0 94.676-76.75 171.426-171.426 171.426-94.676 0-171.426-76.75-171.426-171.426zM171.426 340.317c93.276 0 168.891-75.615 168.891-168.891 0-93.276-75.615-168.891-168.891-168.891-93.276 0-168.891 75.615-168.891 168.891 0 93.276 75.615 168.891 168.891 168.891z" data-fill-palette-color="tertiary" fill="#ff4057" stroke="transparent"></path><ellipse rx="164.56874808852186" ry="164.56874808852186" cx="171.42577925887693" cy="171.42577925887693" fill="#ff4057" stroke="transparent" stroke-width="0" fill-opacity="1" data-fill-palette-color="tertiary"></ellipse></g><g transform="matrix(1,0,0,1,64.84655864529837,133.4640228322196)"><svg viewBox="0 0 213.1584412271571 75.92351285331469" height="75.92351285331469" width="213.1584412271571"><g><svg viewBox="0 0 213.1584412271571 75.92351285331469" height="75.92351285331469" width="213.1584412271571"><g><svg viewBox="0 0 213.1584412271571 75.92351285331469" height="75.92351285331469" width="213.1584412271571"><g transform="matrix(1,0,0,1,0,47.814062541905614)"><svg viewBox="0 0 213.1584412271571 28.109450311409084" height="28.109450311409084" width="213.1584412271571"><g id="textblocktransform"><svg viewBox="0 0 213.1584412271571 28.109450311409084" height="28.109450311409084" width="213.1584412271571" id="textblock"><g><svg viewBox="0 0 213.1584412271571 28.109450311409084" height="28.109450311409084" width="213.1584412271571"><g transform="matrix(1,0,0,1,0,0)"><svg width="213.1584412271571" viewBox="4.69 -34.47 266.02 35.08" height="28.109450311409084" data-palette-color="#282634"><path d="M13.23 0L4.69 0 4.69-33.84 13.04-33.84Q20.85-33.84 24.9-29.44 28.96-25.05 28.96-17.04L28.96-17.04Q28.96-9.01 24.93-4.5 20.9 0 13.23 0L13.23 0ZM8.69-30.54L8.69-3.3 12.72-3.3Q18.77-3.3 21.78-6.95 24.78-10.6 24.78-17.04L24.78-17.04Q24.78-23.46 21.78-27 18.77-30.54 12.72-30.54L12.72-30.54 8.69-30.54ZM47.8-33.84L59.35 0 55.08 0 51.76-10.5 39.26-10.5 35.91 0 31.78 0 43.33-33.84 47.8-33.84ZM41.99-19.07L41.99-19.07 40.28-13.7 50.75-13.7 49.05-19.07Q48.12-21.92 47.29-24.73 46.46-27.54 45.6-30.49L45.6-30.49 45.38-30.49Q44.63-27.54 43.77-24.73 42.92-21.92 41.99-19.07ZM73.48 0.61L73.48 0.61Q69.84 0.61 66.87-0.74 63.89-2.1 61.71-4.42L61.71-4.42 63.98-7.1Q65.79-5.13 68.31-4.03 70.82-2.93 73.53-2.93L73.53-2.93Q76.97-2.93 78.9-4.49 80.83-6.05 80.83-8.59L80.83-8.59Q80.83-10.4 80.07-11.49 79.32-12.57 78.02-13.29 76.73-14.01 75.12-14.72L75.12-14.72 70.23-16.89Q68.67-17.58 67.08-18.65 65.5-19.73 64.44-21.41 63.37-23.1 63.37-25.56L63.37-25.56Q63.37-28.15 64.74-30.15 66.11-32.15 68.49-33.31 70.87-34.47 73.87-34.47L73.87-34.47Q76.97-34.47 79.51-33.3 82.05-32.13 83.78-30.4L83.78-30.4 81.56-27.71Q80.02-29.17 78.07-30.04 76.12-30.91 73.87-30.91L73.87-30.91Q70.99-30.91 69.22-29.52 67.45-28.13 67.45-25.81L67.45-25.81Q67.45-24.15 68.31-23.07 69.16-22 70.45-21.3 71.75-20.61 73.07-20.04L73.07-20.04 77.9-17.97Q79.88-17.14 81.46-15.99 83.05-14.84 83.98-13.15 84.91-11.45 84.91-8.91L84.91-8.91Q84.91-6.25 83.52-4.09 82.12-1.93 79.57-0.66 77.02 0.61 73.48 0.61ZM95.62 0L91.62 0 91.62-33.84 95.62-33.84 95.62-19.58 111.71-19.58 111.71-33.84 115.74-33.84 115.74 0 111.71 0 111.71-16.06 95.62-16.06 95.62 0ZM135.78 0L125.11 0 125.11-33.84 135-33.84Q140.18-33.84 143.39-31.9 146.6-29.96 146.6-25.56L146.6-25.56Q146.6-23.05 145.29-21.03 143.98-19.02 141.59-18.24L141.59-18.24 141.59-18.02Q144.64-17.41 146.6-15.39 148.55-13.38 148.55-9.89L148.55-9.89Q148.55-6.59 146.94-4.39 145.33-2.2 142.45-1.1 139.57 0 135.78 0L135.78 0ZM129.12-30.59L129.12-19.36 134.22-19.36Q138.66-19.36 140.64-20.89 142.62-22.41 142.62-25.02L142.62-25.02Q142.62-28.08 140.55-29.33 138.49-30.59 134.44-30.59L134.44-30.59 129.12-30.59ZM129.12-16.28L129.12-3.17 135.15-3.17Q139.59-3.17 142.09-4.85 144.59-6.52 144.59-9.99L144.59-9.99Q144.59-13.18 142.13-14.73 139.66-16.28 135.15-16.28L135.15-16.28 129.12-16.28ZM167.71 0.61L167.71 0.61Q163.49 0.61 160.24-1.55 156.99-3.71 155.16-7.68 153.33-11.65 153.33-17.04L153.33-17.04Q153.33-22.46 155.16-26.37 156.99-30.27 160.24-32.37 163.49-34.47 167.71-34.47L167.71-34.47Q171.94-34.47 175.18-32.36 178.43-30.25 180.26-26.34 182.09-22.44 182.09-17.04L182.09-17.04Q182.09-11.65 180.26-7.68 178.43-3.71 175.18-1.55 171.94 0.61 167.71 0.61ZM167.71-2.93L167.71-2.93Q170.81-2.93 173.12-4.66 175.43-6.4 176.7-9.57 177.97-12.74 177.97-17.04L177.97-17.04Q177.97-21.34 176.7-24.44 175.43-27.54 173.12-29.22 170.81-30.91 167.71-30.91L167.71-30.91Q164.66-30.91 162.35-29.22 160.05-27.54 158.78-24.44 157.51-21.34 157.51-17.04L157.51-17.04Q157.51-12.74 158.78-9.57 160.05-6.4 162.35-4.66 164.66-2.93 167.71-2.93ZM200.94-33.84L212.49 0 208.21 0 204.89-10.5 192.39-10.5 189.05 0 184.92 0 196.47-33.84 200.94-33.84ZM195.13-19.07L195.13-19.07 193.42-13.7 203.89-13.7 202.18-19.07Q201.25-21.92 200.42-24.73 199.59-27.54 198.74-30.49L198.74-30.49 198.52-30.49Q197.76-27.54 196.91-24.73 196.05-21.92 195.13-19.07ZM221.34 0L217.34 0 217.34-33.84 227.79-33.84Q231.23-33.84 233.88-32.93 236.53-32.03 238.03-29.97 239.53-27.91 239.53-24.41L239.53-24.41Q239.53-21.07 238.03-18.86 236.53-16.65 233.88-15.56 231.23-14.48 227.79-14.48L227.79-14.48 221.34-14.48 221.34 0ZM221.34-30.54L221.34-17.72 227.18-17.72Q231.18-17.72 233.36-19.38 235.53-21.04 235.53-24.41L235.53-24.41Q235.53-27.83 233.36-29.19 231.18-30.54 227.18-30.54L227.18-30.54 221.34-30.54ZM240.46 0L235.94 0 226.96-15.6 230.21-17.6 240.46 0ZM254.98 0L246.44 0 246.44-33.84 254.79-33.84Q262.6-33.84 266.65-29.44 270.71-25.05 270.71-17.04L270.71-17.04Q270.71-9.01 266.68-4.5 262.65 0 254.98 0L254.98 0ZM250.44-30.54L250.44-3.3 254.47-3.3Q260.53-3.3 263.53-6.95 266.53-10.6 266.53-17.04L266.53-17.04Q266.53-23.46 263.53-27 260.53-30.54 254.47-30.54L254.47-30.54 250.44-30.54Z" opacity="1" transform="matrix(1,0,0,1,0,0)" fill="#282634" class="wordmark-text-0" data-fill-palette-color="quaternary" id="text-0"></path></svg></g></svg></g></svg></g></svg></g><g transform="matrix(1,0,0,1,70.97228249430705,0)"><svg viewBox="0 0 71.21387623854301 41.1780959501894" height="41.1780959501894" width="71.21387623854301"><g><svg xmlns="http://www.w3.org/2000/svg" xmlns:xlink="http://www.w3.org/1999/xlink" version="1.1" x="0" y="0" viewBox="10.194 23.772 79.613 46.03473263976202" enable-background="new 0 0 100 100" xml:space="preserve" height="41.1780959501894" width="71.21387623854301" class="icon-icon-0" data-fill-palette-color="quaternary" id="icon-0"><g fill="#282634" data-fill-palette-color="quaternary"><g fill="#282634" data-fill-palette-color="quaternary"><path d="M80.737 63.429C80.737 65.851 82.699 67.813 85.121 67.813S89.506 65.851 89.506 63.429A39.4 39.4 0 0 0 82.585 41.077C80.675 43.252 78.631 45.574 76.55 47.931A30.7 30.7 0 0 1 80.737 63.429" fill="#282634" data-fill-palette-color="quaternary"></path><path d="M49.849 23.772C27.983 23.772 10.194 41.562 10.194 63.429 10.194 65.851 12.157 67.813 14.579 67.813S18.963 65.851 18.963 63.429C18.963 46.397 32.818 32.541 49.849 32.541A30.7 30.7 0 0 1 67.034 37.776C69.749 36.047 72.431 34.343 74.947 32.749 68.104 27.143 59.363 23.772 49.849 23.772" fill="#282634" data-fill-palette-color="quaternary"></path><path d="M89.807 27.512S47.153 54.36 44.084 56.984A7.31 7.31 0 0 0 53.584 68.096C56.651 65.472 89.807 27.512 89.807 27.512" fill="#282634" data-fill-palette-color="quaternary"></path></g><g fill="#282634" data-fill-palette-color="quaternary"><circle cx="49.63" cy="41.029" r="3.9" fill="#282634" data-fill-palette-color="quaternary"></circle></g><g fill="#282634" data-fill-palette-color="quaternary"><circle cx="33.56" cy="47.685" r="3.9" fill="#282634" data-fill-palette-color="quaternary"></circle></g><g fill="#282634" data-fill-palette-color="quaternary"><circle cx="26.904" cy="63.754" r="3.9" fill="#282634" data-fill-palette-color="quaternary"></circle></g><g fill="#282634" data-fill-palette-color="quaternary"><circle cx="72.358" cy="63.754" r="3.9" fill="#282634" data-fill-palette-color="quaternary"></circle></g></g></svg></g></svg></g><g></g></svg></g></svg></g></svg></g></svg></g><defs></defs></svg><rect width="342.85155851775386" height="342.85155851775386" fill="none" stroke="none" visibility="hidden"></rect></g></svg></g></svg>